<svg width="191" height="74" viewBox="0 0 191 74" fill="none" xmlns="http://www.w3.org/2000/svg">
<rect width="60" height="70" rx="5" fill="#FFEE00"/>
<rect x="66" y="24" width="125" height="50" rx="5" fill="#056D39"/>
<path d="M26.032 32.496V66H19.312V32.496H26.032ZM47.4074 39.024C50.5754 39.024 53.1354 40.032 55.0874 42.048C57.0394 44.032 58.0154 46.816 58.0154 50.4V66H51.2954V51.312C51.2954 49.2 50.7674 47.584 49.7114 46.464C48.6554 45.312 47.2154 44.736 45.3914 44.736C43.5354 44.736 42.0634 45.312 40.9754 46.464C39.9194 47.584 39.3914 49.2 39.3914 51.312V66H32.6714V39.408H39.3914V42.72C40.2874 41.568 41.4234 40.672 42.7994 40.032C44.2074 39.36 45.7434 39.024 47.4074 39.024Z" fill="#101010"/>
<path d="M73.584 49.104C73.584 45.776 74.304 42.816 75.744 40.224C77.184 37.6 79.184 35.568 81.744 34.128C84.336 32.656 87.264 31.92 90.528 31.92C94.528 31.92 97.952 32.976 100.8 35.088C103.648 37.2 105.552 40.08 106.512 43.728H97.488C96.816 42.32 95.856 41.248 94.608 40.512C93.392 39.776 92 39.408 90.432 39.408C87.904 39.408 85.856 40.288 84.288 42.048C82.72 43.808 81.936 46.16 81.936 49.104C81.936 52.048 82.72 54.4 84.288 56.16C85.856 57.92 87.904 58.8 90.432 58.8C92 58.8 93.392 58.432 94.608 57.696C95.856 56.96 96.816 55.888 97.488 54.48H106.512C105.552 58.128 103.648 61.008 100.8 63.12C97.952 65.2 94.528 66.24 90.528 66.24C87.264 66.24 84.336 65.52 81.744 64.08C79.184 62.608 77.184 60.576 75.744 57.984C74.304 55.392 73.584 52.432 73.584 49.104ZM124.163 32.304C127.715 32.304 130.819 33.008 133.475 34.416C136.131 35.824 138.179 37.808 139.619 40.368C141.091 42.896 141.827 45.824 141.827 49.152C141.827 52.448 141.091 55.376 139.619 57.936C138.179 60.496 136.115 62.48 133.427 63.888C130.771 65.296 127.683 66 124.163 66H111.539V32.304H124.163ZM123.635 58.896C126.739 58.896 129.155 58.048 130.883 56.352C132.611 54.656 133.475 52.256 133.475 49.152C133.475 46.048 132.611 43.632 130.883 41.904C129.155 40.176 126.739 39.312 123.635 39.312H119.747V58.896H123.635ZM166.814 48.72C168.766 49.136 170.334 50.112 171.518 51.648C172.702 53.152 173.294 54.88 173.294 56.832C173.294 59.648 172.302 61.888 170.318 63.552C168.366 65.184 165.63 66 162.11 66H146.414V32.304H161.582C165.006 32.304 167.678 33.088 169.598 34.656C171.55 36.224 172.526 38.352 172.526 41.04C172.526 43.024 171.998 44.672 170.942 45.984C169.918 47.296 168.542 48.208 166.814 48.72ZM154.622 45.936H159.998C161.342 45.936 162.366 45.648 163.07 45.072C163.806 44.464 164.174 43.584 164.174 42.432C164.174 41.28 163.806 40.4 163.07 39.792C162.366 39.184 161.342 38.88 159.998 38.88H154.622V45.936ZM160.67 59.376C162.046 59.376 163.102 59.072 163.838 58.464C164.606 57.824 164.99 56.912 164.99 55.728C164.99 54.544 164.59 53.616 163.79 52.944C163.022 52.272 161.95 51.936 160.574 51.936H154.622V59.376H160.67Z" fill="#F2F2F2"/>
</svg>
