<svg width="284" height="74" viewBox="0 0 284 74" fill="none" xmlns="http://www.w3.org/2000/svg">
<rect width="60" height="70" rx="5" fill="#FFEE00"/>
<rect x="159" y="24" width="125" height="50" rx="5" fill="#056D39"/>
<path d="M26.032 32.496V66H19.312V32.496H26.032ZM47.4074 39.024C50.5754 39.024 53.1354 40.032 55.0874 42.048C57.0394 44.032 58.0154 46.816 58.0154 50.4V66H51.2954V51.312C51.2954 49.2 50.7674 47.584 49.7114 46.464C48.6554 45.312 47.2154 44.736 45.3914 44.736C43.5354 44.736 42.0634 45.312 40.9754 46.464C39.9194 47.584 39.3914 49.2 39.3914 51.312V66H32.6714V39.408H39.3914V42.72C40.2874 41.568 41.4234 40.672 42.7994 40.032C44.2074 39.36 45.7434 39.024 47.4074 39.024ZM74.2458 62.736L83.0778 39.792H86.6298L76.1178 66H72.3258L61.8138 39.792H65.4138L74.2458 62.736ZM114.896 51.552C114.896 52.704 114.864 53.584 114.8 54.192H93.0558C93.1518 56.176 93.6318 57.872 94.4958 59.28C95.3598 60.688 96.4958 61.76 97.9038 62.496C99.3118 63.2 100.848 63.552 102.512 63.552C104.688 63.552 106.512 63.024 107.984 61.968C109.488 60.912 110.48 59.488 110.96 57.696H114.512C113.872 60.256 112.496 62.352 110.384 63.984C108.304 65.584 105.68 66.384 102.512 66.384C100.048 66.384 97.8398 65.84 95.8878 64.752C93.9358 63.632 92.3998 62.064 91.2798 60.048C90.1918 58 89.6478 55.616 89.6478 52.896C89.6478 50.176 90.1918 47.792 91.2798 45.744C92.3678 43.696 93.8878 42.128 95.8398 41.04C97.7918 39.952 100.016 39.408 102.512 39.408C105.008 39.408 107.184 39.952 109.04 41.04C110.928 42.128 112.368 43.6 113.36 45.456C114.384 47.28 114.896 49.312 114.896 51.552ZM111.488 51.456C111.52 49.504 111.12 47.84 110.288 46.464C109.488 45.088 108.384 44.048 106.976 43.344C105.568 42.64 104.032 42.288 102.368 42.288C99.8718 42.288 97.7438 43.088 95.9838 44.688C94.2238 46.288 93.2478 48.544 93.0558 51.456H111.488ZM130.067 66.384C127.059 66.384 124.595 65.696 122.675 64.32C120.787 62.912 119.731 61.008 119.507 58.608H122.963C123.123 60.08 123.811 61.28 125.027 62.208C126.275 63.104 127.939 63.552 130.019 63.552C131.843 63.552 133.267 63.12 134.291 62.256C135.347 61.392 135.875 60.32 135.875 59.04C135.875 58.144 135.587 57.408 135.011 56.832C134.435 56.256 133.699 55.808 132.803 55.488C131.939 55.136 130.755 54.768 129.251 54.384C127.299 53.872 125.715 53.36 124.499 52.848C123.283 52.336 122.243 51.584 121.379 50.592C120.547 49.568 120.131 48.208 120.131 46.512C120.131 45.232 120.515 44.048 121.283 42.96C122.051 41.872 123.139 41.008 124.547 40.368C125.955 39.728 127.555 39.408 129.347 39.408C132.163 39.408 134.435 40.128 136.163 41.568C137.891 42.976 138.819 44.928 138.947 47.424H135.587C135.491 45.888 134.883 44.656 133.763 43.728C132.675 42.768 131.171 42.288 129.251 42.288C127.555 42.288 126.179 42.688 125.123 43.488C124.067 44.288 123.539 45.28 123.539 46.464C123.539 47.488 123.843 48.336 124.451 49.008C125.091 49.648 125.875 50.16 126.803 50.544C127.731 50.896 128.979 51.296 130.547 51.744C132.435 52.256 133.939 52.752 135.059 53.232C136.179 53.712 137.139 54.416 137.939 55.344C138.739 56.272 139.155 57.504 139.187 59.04C139.187 60.448 138.803 61.712 138.035 62.832C137.267 63.92 136.195 64.784 134.819 65.424C133.443 66.064 131.859 66.384 130.067 66.384ZM149.88 42.624V58.896C149.88 60.496 150.184 61.6 150.792 62.208C151.4 62.816 152.472 63.12 154.008 63.12H157.08V66H153.48C151.112 66 149.352 65.456 148.2 64.368C147.048 63.248 146.472 61.424 146.472 58.896V42.624H142.824V39.792H146.472V33.216H149.88V39.792H157.08V42.624H149.88Z" fill="#101010"/>
<path d="M166.584 49.104C166.584 45.776 167.304 42.816 168.744 40.224C170.184 37.6 172.184 35.568 174.744 34.128C177.336 32.656 180.264 31.92 183.528 31.92C187.528 31.92 190.952 32.976 193.8 35.088C196.648 37.2 198.552 40.08 199.512 43.728H190.488C189.816 42.32 188.856 41.248 187.608 40.512C186.392 39.776 185 39.408 183.432 39.408C180.904 39.408 178.856 40.288 177.288 42.048C175.72 43.808 174.936 46.16 174.936 49.104C174.936 52.048 175.72 54.4 177.288 56.16C178.856 57.92 180.904 58.8 183.432 58.8C185 58.8 186.392 58.432 187.608 57.696C188.856 56.96 189.816 55.888 190.488 54.48H199.512C198.552 58.128 196.648 61.008 193.8 63.12C190.952 65.2 187.528 66.24 183.528 66.24C180.264 66.24 177.336 65.52 174.744 64.08C172.184 62.608 170.184 60.576 168.744 57.984C167.304 55.392 166.584 52.432 166.584 49.104ZM217.163 32.304C220.715 32.304 223.819 33.008 226.475 34.416C229.131 35.824 231.179 37.808 232.619 40.368C234.091 42.896 234.827 45.824 234.827 49.152C234.827 52.448 234.091 55.376 232.619 57.936C231.179 60.496 229.115 62.48 226.427 63.888C223.771 65.296 220.683 66 217.163 66H204.539V32.304H217.163ZM216.635 58.896C219.739 58.896 222.155 58.048 223.883 56.352C225.611 54.656 226.475 52.256 226.475 49.152C226.475 46.048 225.611 43.632 223.883 41.904C222.155 40.176 219.739 39.312 216.635 39.312H212.747V58.896H216.635ZM259.814 48.72C261.766 49.136 263.334 50.112 264.518 51.648C265.702 53.152 266.294 54.88 266.294 56.832C266.294 59.648 265.302 61.888 263.318 63.552C261.366 65.184 258.63 66 255.11 66H239.414V32.304H254.582C258.006 32.304 260.678 33.088 262.598 34.656C264.55 36.224 265.526 38.352 265.526 41.04C265.526 43.024 264.998 44.672 263.942 45.984C262.918 47.296 261.542 48.208 259.814 48.72ZM247.622 45.936H252.998C254.342 45.936 255.366 45.648 256.07 45.072C256.806 44.464 257.174 43.584 257.174 42.432C257.174 41.28 256.806 40.4 256.07 39.792C255.366 39.184 254.342 38.88 252.998 38.88H247.622V45.936ZM253.67 59.376C255.046 59.376 256.102 59.072 256.838 58.464C257.606 57.824 257.99 56.912 257.99 55.728C257.99 54.544 257.59 53.616 256.79 52.944C256.022 52.272 254.95 51.936 253.574 51.936H247.622V59.376H253.67Z" fill="#F2F2F2"/>
</svg>
